<svg xmlns="http://www.w3.org/2000/svg" width="960" height="540" viewBox="0 0 960 540" role="img" aria-labelledby="t d">
  <title id="t">Create a database in phpMyAdmin</title><desc id="d">Database name, collation and Create button are highlighted.</desc>
  <rect width="960" height="540" rx="28" fill="#e5eef4"/><rect x="54" y="48" width="852" height="444" rx="18" fill="#fff" stroke="#bccdd8" stroke-width="2"/><rect x="54" y="48" width="852" height="63" rx="18" fill="#263849"/><rect x="54" y="90" width="852" height="21" fill="#263849"/><text x="89" y="87" fill="#fff" font-family="Arial" font-size="22" font-weight="700">phpMyAdmin · Databases</text><rect x="54" y="111" width="205" height="381" fill="#f1f4f6"/><rect x="78" y="139" width="157" height="43" rx="7" fill="#1769aa"/><text x="156" y="166" text-anchor="middle" fill="#fff" font-family="Arial" font-size="17" font-weight="700">＋ New</text>
  <text x="303" y="175" fill="#263849" font-family="Arial" font-size="30" font-weight="700">Create database</text><text x="303" y="224" fill="#526675" font-family="Arial" font-size="16" font-weight="700">Database name</text><rect x="303" y="241" width="528" height="52" rx="8" fill="#fff" stroke="#1769aa" stroke-width="3"/><text x="323" y="274" fill="#263849" font-family="Arial" font-size="19">database_lesson</text>
  <text x="303" y="332" fill="#526675" font-family="Arial" font-size="16" font-weight="700">Collation</text><rect x="303" y="349" width="528" height="52" rx="8" fill="#fff" stroke="#9eb3c1" stroke-width="2"/><text x="323" y="382" fill="#263849" font-family="Arial" font-size="18">utf8mb4_unicode_ci</text><path d="m799 370 10 10 10-10" fill="none" stroke="#526675" stroke-width="3"/>
  <rect x="685" y="426" width="146" height="45" rx="8" fill="#1769aa"/><text x="758" y="455" text-anchor="middle" fill="#fff" font-family="Arial" font-size="17" font-weight="700">Create</text><circle cx="847" cy="266" r="25" fill="#fff5d8" stroke="#d5a021" stroke-width="3"/><text x="847" y="273" text-anchor="middle" fill="#8b6513" font-family="Arial" font-size="21" font-weight="700">1</text><circle cx="847" cy="374" r="25" fill="#fff5d8" stroke="#d5a021" stroke-width="3"/><text x="847" y="381" text-anchor="middle" fill="#8b6513" font-family="Arial" font-size="21" font-weight="700">2</text><circle cx="855" cy="449" r="25" fill="#fff5d8" stroke="#d5a021" stroke-width="3"/><text x="855" y="456" text-anchor="middle" fill="#8b6513" font-family="Arial" font-size="21" font-weight="700">3</text>
</svg>
