<svg xmlns="http://www.w3.org/2000/svg" width="1000" height="540" viewBox="0 0 1000 540" role="img" aria-labelledby="t d">
  <title id="t">Students database table</title><desc id="d">A visual table showing id, student number, full name, course and year level fields.</desc>
  <rect width="1000" height="540" rx="28" fill="#f4f7fb"/>
  <rect x="70" y="65" width="860" height="410" rx="18" fill="#fff" stroke="#ccd8e8" stroke-width="3"/>
  <rect x="70" y="65" width="860" height="80" rx="18" fill="#173b67"/>
  <path d="M70 127h860" stroke="#173b67" stroke-width="36"/>
  <g font-family="Arial, sans-serif" font-size="22" fill="#172033">
    <g font-weight="700" fill="#fff"><text x="102" y="116">id</text><text x="202" y="116">student_no</text><text x="410" y="116">full_name</text><text x="670" y="116">course</text><text x="837" y="116">year</text></g>
    <g><text x="102" y="200">1</text><text x="202" y="200">2026-001</text><text x="410" y="200">Ana Santos</text><text x="670" y="200">BSIT</text><text x="850" y="200">2</text></g>
    <g><text x="102" y="280">2</text><text x="202" y="280">2026-002</text><text x="410" y="280">Marco Reyes</text><text x="670" y="280">BSCS</text><text x="850" y="280">1</text></g>
    <g><text x="102" y="360">3</text><text x="202" y="360">2026-003</text><text x="410" y="360">Lea Cruz</text><text x="670" y="360">BSIS</text><text x="850" y="360">3</text></g>
    <g><text x="102" y="440">4</text><text x="202" y="440">2026-004</text><text x="410" y="440">Paolo Lim</text><text x="670" y="440">BSIT</text><text x="850" y="440">2</text></g>
  </g>
  <g stroke="#dce4ef" stroke-width="2"><path d="M70 225h860M70 305h860M70 385h860"/><path d="M170 65v410M380 65v410M640 65v410M810 65v410"/></g>
</svg>
